<svg width="105" height="411" viewBox="0 0 105 411" fill="none" xmlns="http://www.w3.org/2000/svg">
<path d="M104.353 195.943V214.781H88.9314C76.007 214.781 69.5448 222.374 69.5448 237.561V358.034C69.5448 393.081 51.3332 410.605 14.9099 410.605H0.810547L0.810547 391.767H13.5881C36.2058 391.767 47.5146 379.939 47.5146 356.282L47.5146 237.999C47.5146 228.361 48.8364 221.206 51.48 216.533C54.4174 211.568 59.1172 207.918 65.5794 205.581C59.1172 203.245 54.4174 199.74 51.48 195.067C48.8364 190.102 47.5146 182.801 47.5146 173.163L47.5146 54.8801C47.5146 31.2235 36.2058 19.3952 13.5881 19.3952H0.810547L0.810547 0.557617L14.9099 0.557617C51.3332 0.557617 69.5448 18.081 69.5448 53.1277L69.5448 173.601C69.5448 188.496 76.007 195.943 88.9314 195.943H104.353Z" fill="#E30613"/>
</svg>
