<svg width="496" height="53" viewBox="0 0 496 53" fill="none" xmlns="http://www.w3.org/2000/svg">
<path d="M125.338 47.1791C132.703 44.1334 136.201 35.7035 133.15 28.3505C130.099 20.9974 121.655 17.5057 114.29 20.5514C106.925 23.5971 103.427 32.027 106.478 39.38C109.529 46.7331 117.973 50.2248 125.338 47.1791Z" fill="#E30613"/>
<path d="M402.679 47.184C410.044 44.1383 413.542 35.7084 410.491 28.3553C407.44 21.0023 398.996 17.5105 391.631 20.5563C384.266 23.602 380.769 32.0319 383.819 39.3849C386.87 46.7379 395.314 50.2297 402.679 47.184Z" fill="#E30613"/>
<path d="M29.299 0.805176H0V48.1535H29.299C41.1761 48.1535 56.6031 44.0683 56.6031 24.4794C56.6031 4.89046 42.0661 0.805176 29.299 0.805176ZM28.9614 35.2441H16.5011V13.7964H28.9614C36.1225 13.7964 40.2861 16.7888 40.2861 24.0095C40.3168 31.6694 37.5342 35.2441 28.9614 35.2441Z" fill="#1D1D1B"/>
<path d="M109.17 0.939697H59.1138V14.4824H75.8604V48.2778H92.4332V14.4824H109.17V0.939697Z" fill="#1D1D1B"/>
<path d="M168.995 13.032C176.924 13.032 180.054 16.5862 180.596 19.7217C185.711 19.7217 192.115 19.7217 197.261 19.7217C196.494 4.08527 181.067 0 168.995 0C155.788 0 140.75 5.76024 140.75 24.961C140.75 45.5917 156.719 49.9221 168.995 49.9221C180.126 49.9221 196.381 46.419 197.261 30.3638C192.146 30.3638 185.681 30.4251 180.586 30.3638C179.88 34.1836 176.402 37.9624 168.995 37.7378C160.034 37.4722 156.719 32.0286 156.719 24.961C156.74 18.0774 161.251 13.032 168.995 13.032Z" fill="#1D1D1B"/>
<path d="M230.806 0C217.599 0 200.565 4.24869 200.565 24.961C200.565 45.6734 218.519 49.9221 230.806 49.9221C243.092 49.9221 261.291 45.5917 261.291 24.961C261.291 4.33039 244.013 0 230.806 0ZM230.806 36.2773C221.824 36.2773 216.647 33.0499 216.647 24.961C216.647 16.1368 222.274 13.6448 230.806 13.6448C238.57 13.6448 244.759 16.1368 244.759 24.961C244.759 33.0499 239.644 36.2773 230.806 36.2773V36.2773Z" fill="#1D1D1B"/>
<path d="M382.886 13.8287V0.929443H337.566V48.2982H354.027L354.088 33.9998H376.052V22.704H353.965L354.027 13.8287C354.027 13.8287 381.535 13.6755 382.886 13.8287Z" fill="#1D1D1B"/>
<path d="M314.999 41.1081H312.554L298.713 0.929443H265.138V48.2982H281.762V7.43525H284.002L298.079 48.2982H331.603V0.929443H314.999V41.1081Z" fill="#1D1D1B"/>
<path d="M436.614 31.8039C453.524 31.8039 472 30.5579 472.859 18.5778C473.749 6.25048 465.698 0 445.627 0C434.496 0 418.241 3.50313 417.371 19.5685C422.486 19.5685 428.982 19.5174 434.077 19.5685C434.077 15.1666 438.22 12.1946 445.627 12.1946C453.524 12.1946 456.604 14.1861 456.215 17.679C455.806 21.3354 451.049 23.807 441.678 24.5832C429.893 25.5228 416.052 28.2599 417.371 48.2267C428.082 48.2982 432.44 48.2982 436.512 48.2982V48.2267H472.951V35.0619H436.614V31.8039Z" fill="#1D1D1B"/>
<path d="M496 1.00098H479.366V48.2983H496V1.00098Z" fill="#1D1D1B"/>
</svg>
