<svg width="220" height="55" viewBox="0 0 220 55" fill="none" xmlns="http://www.w3.org/2000/svg">
<path d="M23.2449 43.1471C23.2746 43.6615 23.2746 44.1772 23.2449 44.6916C23.2488 45.1764 23.2095 45.6605 23.1276 46.1383C23.0464 46.5573 22.8578 46.9481 22.5802 47.2722C22.4278 47.4262 22.2444 47.5459 22.0421 47.6235C21.8398 47.701 21.6234 47.7346 21.4071 47.7219C20.9555 47.7251 20.5108 47.6105 20.1168 47.3895C19.7199 47.188 19.3676 46.9088 19.0807 46.5684C18.8105 46.2415 18.5747 45.8878 18.3768 45.5127C18.2118 45.2456 18.0867 44.9558 18.0054 44.6525L17.2429 40.1559C15.9721 40.5274 14.6623 40.9184 13.3328 41.2703C12.0034 41.6222 10.6349 42.0327 9.24683 42.4824C8.52389 42.7375 7.76499 42.8761 6.99854 42.893C6.15377 42.8018 5.37659 42.3887 4.82845 41.7395C4.52677 41.368 4.3551 40.9079 4.33969 40.4296C4.33667 40.0263 4.43767 39.629 4.63295 39.2761C4.82147 38.9151 5.08873 38.6011 5.41496 38.3573C5.74732 38.1031 6.06012 37.9076 6.33383 37.7317L11.3387 36.109C13.0005 35.5811 14.7209 35.0728 16.5 34.5645C16.2263 32.5117 15.9721 30.4785 15.7571 28.4453C15.542 26.412 15.327 24.3592 15.1706 22.2478C13.385 22.5215 11.6059 22.8539 9.83334 23.2449C8.05426 23.6359 6.19697 24.066 4.26149 24.5743C3.35486 24.8812 2.37242 24.8812 1.46579 24.5743C0.828311 24.3296 0.305329 23.8554 -0.000485146 23.2449C-0.0423842 22.759 0.0177112 22.2698 0.175947 21.8086C0.334183 21.3473 0.587067 20.9243 0.918381 20.5665C1.54593 20.0103 2.24242 19.5372 2.99072 19.1588C4.87488 18.5271 6.79402 18.0049 8.73852 17.5948C10.6936 17.1843 12.805 16.8324 14.9164 16.5586C14.7991 14.936 14.7209 13.3524 14.7014 11.7688C14.6818 10.1852 14.7014 8.58211 14.7014 6.97898C14.7063 6.6423 14.7523 6.30748 14.8382 5.98191C14.918 5.59196 15.0705 5.22054 15.2879 4.88709C15.511 4.54959 15.7963 4.25766 16.1285 4.02688C16.4829 3.7607 16.9172 3.62283 17.3602 3.63587C17.7506 3.69679 18.1248 3.83547 18.4607 4.04368C18.7965 4.25189 19.0871 4.5254 19.3153 4.84799C19.7635 5.62097 20.0059 6.49608 20.0191 7.38954C20.0191 8.83626 20.1364 10.2634 20.195 11.632C20.2537 13.0005 20.3319 14.4472 20.4296 15.8939C22.111 15.7766 23.7727 15.6984 25.4345 15.6398C27.0963 15.5811 28.7385 15.6398 30.3416 15.6398C30.3416 13.6847 30.4785 11.7297 30.5567 9.77468C30.6305 7.81102 30.8133 5.85298 31.1041 3.90958C31.173 3.47341 31.2709 3.04234 31.3974 2.61925C31.5872 2.24217 31.8096 1.88238 32.0621 1.54399C32.2863 1.13928 32.5696 0.770281 32.9027 0.449167C33.1632 0.212236 33.4829 0.0500608 33.8279 -0.020227C34.173 -0.0905149 34.5306 -0.066306 34.863 0.0498424C35.1955 0.165991 35.4903 0.369766 35.7165 0.639643C35.9427 0.90952 36.0918 1.23548 36.1481 1.58309C36.3639 2.6506 36.4232 3.74385 36.3241 4.82844C36.1481 6.78348 36.0112 8.60166 35.8939 10.4589C35.7766 12.3162 35.7375 14.154 35.7375 15.9917L38.3964 16.3631C39.2957 16.5 40.1559 16.6369 40.977 16.7346C41.6106 16.8373 42.2283 17.0213 42.8148 17.282C43.3761 17.5439 43.8215 18.0032 44.066 18.5723C44.2029 18.88 44.2736 19.2131 44.2736 19.5499C44.2736 19.8866 44.2029 20.2197 44.066 20.5274C43.8746 20.9208 43.5567 21.2386 43.1633 21.43C42.7698 21.6214 42.3236 21.6753 41.8959 21.5831L38.8069 21.2898L35.8157 21.0748C35.8157 24.0855 36.0308 27.0767 36.3045 30.0679C37.7512 29.7942 39.2175 29.5401 40.7229 29.325L45.3172 28.6603C45.9085 28.5452 46.5215 28.6507 47.0402 28.9569C47.559 29.2631 47.9476 29.7488 48.1325 30.3221C48.2427 30.675 48.2665 31.0493 48.2019 31.4133C48.1372 31.7774 47.986 32.1206 47.761 32.414C47.1091 32.9715 46.3189 33.343 45.4736 33.4892C44.0269 33.7629 42.5802 34.0562 41.1334 34.369L36.8128 35.2292C36.9301 36.2458 37.067 37.1843 37.2234 38.24C37.3798 39.2957 37.5557 40.195 37.7317 41.153C37.7317 41.6026 37.849 42.1305 37.9272 42.7757C38.0239 43.4227 38.0697 44.0764 38.064 44.7307C38.0784 45.2698 37.9922 45.8068 37.8099 46.3143C37.746 46.5218 37.6267 46.708 37.4647 46.8527C37.3028 46.9974 37.1044 47.0951 36.891 47.1354C36.4357 47.2631 35.9495 47.2214 35.5225 47.0181C35.0922 46.8164 34.7066 46.5306 34.3886 46.1774C33.7276 45.4431 33.293 44.5333 33.1373 43.5577C32.8636 42.4042 32.629 41.2116 32.4335 40.0191C32.238 38.8265 32.0621 37.6535 31.9057 36.4804L27.3113 37.6144L22.7366 38.7287C22.8539 39.5107 22.9516 40.2537 23.0298 40.977C23.108 41.7004 23.1276 42.4237 23.2449 43.1471ZM31.065 31.1432C30.85 29.4228 30.6936 27.7219 30.6154 26.021C30.5371 24.3201 30.459 22.6584 30.4003 20.9966C28.7972 20.9966 27.194 20.9966 25.6105 20.9966C24.0269 20.9966 22.4433 21.153 20.8206 21.3289C20.9966 23.284 21.1725 25.239 21.368 27.194C21.5635 29.1491 21.7786 31.1041 21.9937 33.0591C25.1804 32.3749 28.2107 31.7102 31.1432 31.1432H31.065Z" fill="#E30613"/>
<path d="M114.683 52.5514C114.607 53.1942 114.318 53.7931 113.861 54.2522C113.659 54.4973 113.401 54.6894 113.108 54.8121C112.815 54.9347 112.496 54.9841 112.18 54.9561C111.763 54.9523 111.353 54.8535 110.98 54.6672C110.608 54.4809 110.283 54.2119 110.03 53.8808C109.61 53.4186 109.344 52.8382 109.267 52.219C109.267 50.1076 109.267 47.8984 109.111 45.5914C108.954 43.2845 108.857 40.9189 108.681 38.4751C108.022 38.5854 107.345 38.511 106.726 38.2601C106.211 38.053 105.797 37.6532 105.572 37.1457C105.378 36.7512 105.29 36.3126 105.317 35.8737C105.345 35.4347 105.487 35.0105 105.729 34.6432C106.389 33.7967 107.214 33.0919 108.153 32.5709C107.86 30.6159 107.605 28.4849 107.351 26.4908C107.097 24.4966 106.843 22.5807 106.569 20.6256C106.48 20.3259 106.48 20.0065 106.569 19.7068C106.686 19.43 106.824 19.1621 106.98 18.9052C107.231 18.606 107.544 18.3657 107.899 18.2014C108.331 18.0832 108.788 18.0824 109.221 18.1993C109.654 18.3161 110.048 18.5463 110.362 18.8661C111.292 19.5519 111.977 20.5182 112.317 21.6227L112.845 25.2395C113.04 26.6081 113.236 28.0939 113.392 29.697C114.522 28.9904 115.606 28.2133 116.638 27.3705C117.608 26.5566 118.487 25.6388 119.257 24.6335C119.974 23.7437 120.548 22.7477 120.958 21.6814C121.353 20.6613 121.467 19.5544 121.291 18.4751C121.164 17.5136 120.724 16.6205 120.039 15.9336C119.104 15.1066 117.885 14.6724 116.638 14.7214C115.254 14.6742 113.87 14.7857 112.513 15.0538C109.804 15.6177 107.177 16.5175 104.692 17.7322C103.441 18.3383 102.229 18.9443 101.076 19.5699C100.39 19.9885 99.5876 20.1737 98.7882 20.0978C98.4966 20.1076 98.2076 20.0405 97.9503 19.9032C97.6929 19.766 97.4761 19.5633 97.3219 19.3158C97.0791 18.8467 96.9622 18.3227 96.9828 17.7949C97.0033 17.2671 97.1606 16.7538 97.4392 16.305C98.1576 15.293 99.0841 14.4465 100.157 13.8221C101.375 13.0849 102.642 12.4317 103.949 11.8671C105.462 11.2109 107.016 10.6558 108.602 10.2053C110.238 9.72057 111.912 9.38039 113.607 9.1887C115.222 8.96314 116.861 8.96314 118.475 9.1887C119.976 9.40163 121.411 9.94228 122.679 10.7723C124 11.6502 125.055 12.8743 125.729 14.3109C126.64 16.5381 126.911 18.9759 126.511 21.349C126.112 23.4591 125.265 25.4591 124.028 27.2141C122.723 29.0026 121.177 30.6014 119.433 31.9648C117.692 33.336 115.87 34.6025 113.979 35.7576C114.252 38.7553 114.448 41.727 114.565 44.6726C114.722 47.742 114.741 50.3226 114.683 52.5514Z" fill="#E30613"/>
<path d="M150.537 10.7327C152.161 11.2899 153.624 12.2363 154.799 13.4893C155.925 14.6788 156.814 16.0722 157.418 17.5949C158.021 19.0907 158.371 20.6763 158.455 22.287C158.554 23.8055 158.376 25.3294 157.927 26.7835C157.29 28.385 156.505 29.9232 155.581 31.3779C154.663 32.8088 153.573 34.122 152.335 35.2879C151.118 36.4615 149.709 37.42 148.171 38.1227C146.551 38.8586 144.789 39.2258 143.01 39.198C140.978 39.265 138.973 38.7127 137.262 37.6144C135.727 36.5805 134.471 35.1837 133.606 33.548C132.682 31.7826 132.099 29.8593 131.886 27.8784C131.648 25.7703 131.694 23.6399 132.023 21.544C132.236 19.9977 132.61 18.4778 133.137 17.0084C133.626 15.6116 134.318 14.2942 135.19 13.0983C135.965 11.9957 136.94 11.0475 138.064 10.3026C139.157 9.57662 140.446 9.20151 141.759 9.22732C142.749 9.28222 143.729 9.46625 144.672 9.77473C145.802 10.0717 146.892 10.5049 147.917 11.0651C148.268 10.7507 148.707 10.5505 149.175 10.4912C149.643 10.4318 150.118 10.516 150.537 10.7327ZM147.428 16.8129C146.691 16.3355 145.98 15.82 145.297 15.2684C144.714 14.7308 143.974 14.3949 143.186 14.3104C142.815 14.3273 142.452 14.4172 142.117 14.5749C141.781 14.7326 141.48 14.9549 141.231 15.2293C140.571 15.8557 140.005 16.5733 139.549 17.3603C139.093 18.1449 138.695 18.9617 138.357 19.8041C138.077 20.4363 137.848 21.0901 137.673 21.7591C137.494 22.7474 137.383 23.7468 137.34 24.7503C137.296 25.9096 137.382 27.0702 137.594 28.2107C137.771 29.3097 138.184 30.3571 138.807 31.2801C139.516 32.2375 140.529 32.9266 141.68 33.2351C142.585 33.4677 143.533 33.4677 144.437 33.2351C145.552 32.966 146.611 32.5028 147.565 31.8666C148.677 31.1731 149.679 30.3164 150.537 29.3251C151.478 28.1647 152.194 26.8386 152.648 25.415C153.197 23.7784 153.197 22.0076 152.648 20.371C152.424 19.5428 152.02 18.7739 151.466 18.1185C150.912 17.4632 150.221 16.9374 149.442 16.5783C149.156 16.8121 148.809 16.9601 148.443 17.0051C148.076 17.0501 147.704 16.9902 147.37 16.8324L147.428 16.8129Z" fill="#E30613"/>
<path d="M192.159 36.7349C191.575 36.1913 191.116 35.5264 190.815 34.7868C190.515 34.0472 190.38 33.2508 190.42 32.4534C190.263 30.2833 190.302 28.1132 190.302 25.9627C190.442 21.3069 190.009 16.6515 189.012 12.1015C188.367 9.5404 183.284 10.3811 183.987 13.2159C184.726 16.4609 185.086 19.7804 185.063 23.1083H184.828L184.418 23.2452C183.929 23.3625 183.42 23.4602 182.932 23.5384H182.482H181.876H180.292C179.119 23.5384 177.927 23.5384 176.734 23.382L175.503 23.4602L173.743 23.2256L172.59 23.0106C172.59 19.8239 172.59 16.6372 172.59 13.4309C172.59 10.6939 167.331 10.6939 167.389 13.4309C167.448 16.168 167.389 19.1396 167.389 21.9744L165.063 21.5052C164.446 21.3282 163.787 21.3767 163.203 21.6418C162.619 21.9069 162.149 22.3714 161.876 22.9519C161.426 24.2423 162.56 25.2198 163.694 25.513C164.828 25.8063 166.118 26.0995 167.35 26.3537C167.057 29.8993 167.057 33.463 167.35 37.0086C167.441 37.6094 167.751 38.1553 168.22 38.5414C168.689 38.9275 169.285 39.1267 169.892 39.1005C170.928 39.1005 172.668 38.3381 172.511 37.0282C172.215 33.7766 172.215 30.5046 172.511 27.253C172.731 27.3032 172.953 27.3424 173.176 27.3703C177.121 28.0645 181.157 28.0645 185.102 27.3703V27.7418C185.102 31.6518 184.809 36.8913 188.464 39.472C188.999 39.8673 189.647 40.0806 190.312 40.0806C190.977 40.0806 191.625 39.8673 192.159 39.472C192.352 39.2996 192.506 39.0887 192.611 38.8529C192.716 38.6171 192.771 38.3617 192.771 38.1035C192.771 37.8452 192.716 37.5899 192.611 37.3541C192.506 37.1183 192.352 36.9073 192.159 36.7349Z" fill="#E30613"/>
<path d="M219.923 14.8577C219.641 14.2798 219.167 13.8177 218.582 13.5503C217.997 13.2829 217.338 13.2267 216.716 13.3915C214.233 13.7825 211.751 14.0366 209.248 14.2126C208.808 14.0291 208.332 13.9512 207.856 13.9851C207.381 14.0191 206.92 14.1639 206.511 14.4081C203.207 14.5254 199.649 14.1148 196.462 15.1315C195.367 15.4834 194.194 16.3631 194.644 17.6925C194.923 18.272 195.398 18.7346 195.984 18.9992C196.57 19.2637 197.231 19.3133 197.85 19.1393C199.263 18.7522 200.727 18.5873 202.19 18.6505C203.051 18.6505 203.891 18.6505 204.732 18.6505C204.645 21.1135 204.828 23.5786 205.279 26.0014C205.709 30.1852 206.159 34.369 206.589 38.5332C206.681 39.1446 206.999 39.699 207.481 40.0866C207.963 40.4741 208.573 40.6663 209.189 40.6251C210.245 40.6251 211.926 39.8626 211.79 38.5332L210.558 26.803C210.362 24.9653 210.147 23.1275 209.991 21.2898C209.833 20.2859 209.833 19.2635 209.991 18.2595C212.708 18.0445 215.446 17.7707 218.143 17.3406C218.425 17.2981 218.695 17.1995 218.938 17.0508C219.181 16.9021 219.391 16.7062 219.557 16.4748C219.723 16.2433 219.841 15.981 219.904 15.7033C219.966 15.4255 219.973 15.138 219.923 14.8577Z" fill="#E30613"/>
<path d="M94.9946 24.0079C94.2915 21.5196 93.2801 19.129 91.9839 16.8916C90.8438 14.6461 89.1136 12.7537 86.979 11.4175C85.2994 10.4503 83.3892 9.95592 81.4513 9.9869C79.5133 10.0179 77.62 10.573 75.9721 11.5934C75.7375 10.1272 75.4834 8.58268 75.3661 6.90135C75.2428 6.14017 75.276 5.36184 75.4638 4.61396C75.6523 4.32279 75.7526 3.98332 75.7526 3.63644C75.7526 3.28957 75.6523 2.9501 75.4638 2.65893C75.1436 2.23822 74.7189 1.9086 74.2319 1.70282C73.7449 1.49704 73.2125 1.42226 72.6877 1.48591C72.1432 1.48034 71.6066 1.61612 71.1303 1.87998C70.654 2.14383 70.2542 2.52674 69.9702 2.99128C69.2381 5.18649 69.1904 7.55231 69.8333 9.77525C69.8333 10.1663 69.9702 10.5573 70.0288 10.8896L70.2048 11.9258C65.5909 10.8701 59.6867 12.3559 57.0474 17.0089C55.9619 19.1162 55.3664 21.4415 55.3055 23.8112C55.2446 26.1809 55.7197 28.5338 56.6955 30.6941C58.0249 33.8222 61.0943 39.1008 66.8226 39.4527C69.2375 39.5892 71.6472 39.1046 73.8216 38.045C74.3843 42.8274 74.476 47.6534 74.0953 52.4536C74.0762 52.7755 74.1242 53.0978 74.2363 53.4001C74.3484 53.7024 74.5221 53.9781 74.7463 54.2097C74.9706 54.4413 75.2405 54.6238 75.5391 54.7455C75.8376 54.8673 76.1582 54.9257 76.4804 54.917H76.8323C77.55 54.9818 78.2659 54.7745 78.838 54.3364C79.4101 53.8983 79.7968 53.2612 79.9213 52.5514C80.275 48.1375 80.2226 43.7005 79.7649 39.2963C81.0384 39.6403 82.3677 39.7267 83.675 39.5504C86.9255 39.0434 89.931 37.5167 92.2576 35.1907C93.3004 34.2383 94.1443 33.0888 94.7405 31.8085C95.7131 29.3135 95.8028 26.5609 94.9946 24.0079ZM88.2497 31.5348L87.8587 31.9258L87.4482 32.2972C86.9973 32.6791 86.5275 33.038 86.0406 33.3725C85.7309 33.5881 85.4039 33.7777 85.063 33.9395L84.2615 34.3109H84.0464L83.6945 34.4478L82.8734 34.6628H82.1109H81.8177L81.6026 35.2884V34.6042H81.4658C81.031 34.4579 80.6453 34.1939 80.3514 33.8417C79.9177 33.3649 79.5495 32.8323 79.2566 32.2581C79.2157 32.1898 79.1699 32.1245 79.1197 32.0626V31.7303C78.7874 28.3872 78.455 24.9268 77.8881 21.5446L77.3016 18.3774V18.0059V17.8495C77.6061 17.2066 78.0417 16.6345 78.5804 16.1699C79.1191 15.7053 79.7489 15.3584 80.4296 15.1516C80.9988 14.9863 81.5966 14.9444 82.1833 15.0287C82.7699 15.113 83.3318 15.3215 83.8314 15.6404C85.1632 16.6303 86.2308 17.9329 86.9399 19.4331C87.8214 21.0258 88.5418 22.7024 89.0904 24.438C89.7259 26.0684 89.8687 27.8494 89.501 29.5602C89.3862 29.9231 89.2424 30.2761 89.0709 30.6159C88.8167 30.9483 88.5625 31.2806 88.2888 31.5934L88.2497 31.5348ZM70.5567 33.959C70.1369 34.1447 69.6975 34.2825 69.2468 34.3696L68.3866 34.5064H67.0181C66.5247 34.4241 66.0566 34.2302 65.6496 33.9395C64.3752 32.8784 63.359 31.5413 62.6779 30.0294C61.8707 28.566 61.3649 26.9557 61.1903 25.2936C61.0157 23.6315 61.1758 21.9512 61.6613 20.352C62.0707 19.1132 62.8482 18.0288 63.89 17.2435L64.1246 17.1066L64.7502 16.8329H64.9262L64.7111 16.2269L65.1217 16.7743L66.0601 16.5592C66.5869 16.511 67.1169 16.511 67.6437 16.5592H68.367L69.325 16.7938L69.9115 17.0675C70.1187 17.1718 70.3152 17.2962 70.498 17.439C70.8162 17.7009 71.0988 18.0032 71.3387 18.3383V18.6511C71.5147 19.6482 71.7102 20.6061 71.8861 21.6619C72.4531 24.8486 72.7659 28.1721 73.0982 31.437V31.5543C73.0349 31.6317 72.9823 31.7171 72.9418 31.8085C72.3979 32.7625 71.5617 33.5164 70.5567 33.959Z" fill="#E30613"/>
</svg>
