<svg width="258" height="161" viewBox="0 0 258 161" fill="none" xmlns="http://www.w3.org/2000/svg">
<path d="M364.34 -524.938V-517.685L333.617 -505.662V-512.619L356.613 -521.285L333.617 -529.951V-536.934L364.34 -524.938Z" fill="#E30613"/>
<path d="M333.617 148.927V141.674L364.341 129.651V136.608L341.345 145.274L364.341 153.94V160.923L333.617 148.927Z" fill="#E30613"/>
<path d="M576.365 61.104L571.236 55.9755L584.459 25.7493L589.378 30.6685L579.246 53.0565L601.634 42.9236L606.572 47.8618L576.365 61.104Z" fill="#E30613"/>
<path d="M121.595 -437.116L126.723 -431.987L113.5 -401.761L108.581 -406.68L118.714 -429.068L96.3258 -418.935L91.3876 -423.873L121.595 -437.116Z" fill="#E30613"/>
<path d="M598.088 -415.391L592.96 -410.262L562.733 -423.485L567.653 -428.405L590.041 -418.272L579.908 -440.66L584.846 -445.598L598.088 -415.391Z" fill="#E30613"/>
<path d="M99.8693 39.3792L104.998 34.2506L135.224 47.4738L130.305 52.3929L107.917 42.2601L118.05 64.6481L113.111 69.5863L99.8693 39.3792Z" fill="#E30613"/>
<path d="M685.911 -172.644H678.659L666.636 -203.367H673.592L682.258 -180.371L690.924 -203.367H697.908L685.911 -172.644Z" fill="#E30613"/>
<path d="M12.0454 -203.367H19.2982L31.3212 -172.644H24.3645L15.6987 -195.64L7.03303 -172.644H0.0493164L12.0454 -203.367Z" fill="#E30613"/>
<path d="M451.021 -509.483L449.144 -502.477L416.356 -498.816L418.156 -505.535L442.611 -507.954L422.642 -522.276L424.449 -529.022L451.021 -509.483Z" fill="#E30613"/>
<path d="M246.936 133.469L248.813 126.464L281.601 122.802L279.8 129.522L255.345 131.941L275.315 146.263L273.507 153.008L246.936 133.469Z" fill="#E30613"/>
<path d="M504.141 111.466L500.514 105.185L521.11 79.4113L524.588 85.4361L509.006 104.439L533.254 100.446L536.746 106.494L504.141 111.466Z" fill="#E30613"/>
<path d="M193.816 -487.48L197.442 -481.199L176.846 -455.425L173.368 -461.45L188.95 -480.452L164.702 -476.459L161.211 -482.507L193.816 -487.48Z" fill="#E30613"/>
<path d="M648.452 -343.17L642.17 -339.543L616.396 -360.139L622.421 -363.617L641.424 -348.035L637.431 -372.283L643.479 -375.775L648.452 -343.17Z" fill="#E30613"/>
<path d="M49.5056 -32.8439L55.7867 -36.4704L81.5606 -15.8747L75.5359 -12.3963L56.5333 -27.9783L60.5264 -3.73059L54.4783 -0.23877L49.5056 -32.8439Z" fill="#E30613"/>
<path d="M670.456 -85.9638L663.45 -87.841L659.788 -120.629L666.508 -118.829L668.927 -94.3737L683.249 -114.343L689.995 -112.535L670.456 -85.9638Z" fill="#E30613"/>
<path d="M27.503 -290.05L34.5087 -288.173L38.1703 -255.384L31.4506 -257.185L29.0318 -281.64L14.7097 -261.671L7.96392 -263.478L27.503 -290.05Z" fill="#E30613"/>
<path d="M530.751 -472.117L527.125 -465.836L494.506 -470.786L497.985 -476.81L522.232 -472.817L506.65 -491.82L510.142 -497.868L530.751 -472.117Z" fill="#E30613"/>
<path d="M167.212 96.1055L170.838 89.8243L203.457 94.7737L199.979 100.798L175.731 96.8054L191.313 115.808L187.821 121.856L167.212 96.1055Z" fill="#E30613"/>
<path d="M421.347 141.422L419.47 134.416L446.034 114.851L447.835 121.571L427.865 135.893L452.32 138.312L454.128 145.057L421.347 141.422Z" fill="#E30613"/>
<path d="M276.614 -517.434L278.491 -510.428L251.926 -490.863L250.126 -497.583L270.095 -511.905L245.64 -514.324L243.833 -521.069L276.614 -517.434Z" fill="#E30613"/>
<path d="M678.408 -260.372L671.402 -258.495L651.837 -285.059L658.557 -286.86L672.879 -266.891L675.298 -291.346L682.043 -293.153L678.408 -260.372Z" fill="#E30613"/>
<path d="M19.5514 -115.64L26.5572 -117.517L46.1223 -90.9522L39.4025 -89.1517L25.0804 -109.121L22.6616 -84.666L15.9159 -82.8585L19.5514 -115.64Z" fill="#E30613"/>
<path d="M633.092 -6.23608L626.81 -9.86249L631.76 -42.4811L637.785 -39.0027L633.792 -14.755L652.794 -30.337L658.842 -26.8452L633.092 -6.23608Z" fill="#E30613"/>
<path d="M64.8685 -369.776L71.1497 -366.15L66.2002 -333.531L60.1755 -337.009L64.1686 -361.257L45.166 -345.675L39.118 -349.167L64.8685 -369.776Z" fill="#E30613"/>
<path d="M408.847 -519.875L407.878 -512.687L375.825 -504.872L376.754 -511.766L400.7 -517.285L379.067 -528.943L379.999 -535.864L408.847 -519.875Z" fill="#E30613"/>
<path d="M288.456 143.861L289.424 136.673L321.477 128.858L320.549 135.753L296.602 141.272L318.235 152.929L317.303 159.85L288.456 143.861Z" fill="#E30613"/>
<path d="M540.751 89.2234L536.353 83.4562L553.492 55.2654L557.711 60.7972L544.681 81.6324L568.221 74.5784L572.456 80.1316L540.751 89.2234Z" fill="#E30613"/>
<path d="M156.548 -465.237L160.946 -459.47L143.807 -431.279L139.589 -436.811L152.619 -457.646L129.079 -450.592L124.844 -456.145L156.548 -465.237Z" fill="#E30613"/>
<path d="M625.88 -380.109L620.113 -375.711L591.922 -392.85L597.454 -397.068L618.289 -384.038L611.235 -407.578L616.789 -411.813L625.88 -380.109Z" fill="#E30613"/>
<path d="M71.4194 4.09448L77.1866 -0.30365L105.377 16.8355L99.8457 21.0541L79.0105 8.02374L86.0645 31.5639L80.5113 35.7988L71.4194 4.09448Z" fill="#E30613"/>
<path d="M680.518 -127.811L673.33 -128.779L665.516 -160.832L672.41 -159.903L677.929 -135.957L689.586 -157.59L696.508 -156.658L680.518 -127.811Z" fill="#E30613"/>
<path d="M16.7822 -248.202L23.9702 -247.234L31.7849 -215.181L24.8904 -216.109L19.3715 -240.056L7.71399 -218.423L0.792771 -219.355L16.7822 -248.202Z" fill="#E30613"/>
<path d="M492.762 -492.983L489.967 -486.291L456.983 -487.038L459.665 -493.457L484.224 -492.59L466.345 -509.45L469.036 -515.894L492.762 -492.983Z" fill="#E30613"/>
<path d="M204.686 116.976L207.481 110.284L240.465 111.031L237.784 117.451L213.225 116.584L231.104 133.443L228.412 139.887L204.686 116.976Z" fill="#E30613"/>
<path d="M462.527 129.5L459.771 122.791L483.623 99.9964L486.266 106.431L468.287 123.184L492.851 122.463L495.504 128.923L462.527 129.5Z" fill="#E30613"/>
<path d="M234.92 -505.507L237.675 -498.798L213.824 -476.004L211.181 -482.439L229.16 -499.192L204.596 -498.471L201.942 -504.931L234.92 -505.507Z" fill="#E30613"/>
<path d="M666.227 -301.807L659.518 -299.051L636.724 -322.903L643.159 -325.546L659.911 -307.567L659.19 -332.13L665.65 -334.784L666.227 -301.807Z" fill="#E30613"/>
<path d="M31.2188 -74.2007L37.9277 -76.9563L60.722 -53.1048L54.2869 -50.4617L37.5341 -68.4406L38.2551 -43.8768L31.7951 -41.2235L31.2188 -74.2007Z" fill="#E30613"/>
<path d="M653.704 -43.9656L647.011 -46.761L647.759 -79.7446L654.178 -77.0633L653.311 -52.5042L670.17 -70.3832L676.615 -67.6915L653.704 -43.9656Z" fill="#E30613"/>
<path d="M43.7438 -332.042L50.4363 -329.246L49.6888 -296.263L43.2695 -298.944L44.1365 -323.503L27.2771 -305.624L20.833 -308.316L43.7438 -332.042Z" fill="#E30613"/>
<path d="M567.063 -445.309L562.631 -439.568L530.965 -448.827L535.216 -454.333L558.714 -447.14L545.808 -468.052L550.076 -473.58L567.063 -445.309Z" fill="#E30613"/>
<path d="M130.935 69.3072L135.367 63.5663L167.033 72.8251L162.782 78.3317L139.284 71.1379L152.19 92.0502L147.923 97.5781L130.935 69.3072Z" fill="#E30613"/>
<path d="M376.748 148.139L375.823 140.945L404.761 125.101L405.649 132.001L383.946 143.529L407.86 149.191L408.751 156.117L376.748 148.139Z" fill="#E30613"/>
<path d="M321.249 -524.14L322.174 -516.946L293.236 -501.102L292.348 -508.002L314.051 -519.53L290.137 -525.191L289.246 -532.118L321.249 -524.14Z" fill="#E30613"/>
<path d="M685.138 -215.75L677.944 -214.825L662.1 -243.763L669 -244.651L680.529 -222.948L686.19 -246.862L693.116 -247.753L685.138 -215.75Z" fill="#E30613"/>
<path d="M12.86 -160.251L20.0536 -161.176L35.898 -132.238L28.9981 -131.351L17.4694 -153.053L11.8083 -129.139L4.88163 -128.249L12.86 -160.251Z" fill="#E30613"/>
<path d="M606.308 30.064L600.567 25.6316L609.826 -6.03461L615.332 -1.7832L608.139 21.7146L629.051 8.80835L634.579 13.0762L606.308 30.064Z" fill="#E30613"/>
<path d="M91.6917 -406.065L97.4326 -401.633L88.1738 -369.967L82.6672 -374.218L89.861 -397.716L68.9487 -384.81L63.4208 -389.077L91.6917 -406.065Z" fill="#E30613"/>
</svg>
