<svg width="504" height="363" viewBox="0 0 504 363" fill="none" xmlns="http://www.w3.org/2000/svg">
<path d="M318.848 261.946V270.788L281.109 285.446V276.964L309.364 266.4L281.109 255.802V247.288L318.848 261.946Z" fill="#E30613"/>
<path d="M318.848 32.2602V41.1024L281.109 55.7518V47.2049L309.364 36.6484L281.109 26.1166V17.6025L318.848 32.2602Z" fill="#1D1D1B"/>
<path d="M318.848 108.985V117.827L281.109 132.509V123.995L309.364 113.431L281.109 102.841V94.3271L318.848 108.985Z" fill="#1D1D1B"/>
<path d="M318.848 185.709V194.552L281.109 209.209V200.695L309.364 190.131L281.109 179.574V171.06L318.848 185.709Z" fill="#1D1D1B"/>
<path d="M225.857 261.946V270.788L188.119 285.446V276.965L216.374 266.4L188.119 255.835V247.321L225.857 261.946Z" fill="#E30613"/>
<path d="M225.857 32.2598V41.102L188.119 55.7514V47.2045L216.374 36.6481L188.119 26.0834V17.5693L225.857 32.2598Z" fill="#1D1D1B"/>
<path d="M225.857 108.985V117.827L188.119 132.485V123.971L216.374 113.406L188.119 102.841V94.3271L225.857 108.985Z" fill="#1D1D1B"/>
<path d="M225.857 185.709V194.552L188.119 209.209V200.695L216.374 190.131L188.119 179.574V171.06L225.857 185.709Z" fill="#1D1D1B"/>
<path d="M503.916 261.946V270.788L466.178 285.446V276.965L494.432 266.4L466.178 255.835V247.321L503.916 261.946Z" fill="#1D1D1B"/>
<path d="M132.84 261.946V270.788L95.1016 285.446V276.965L123.356 266.4L95.1016 255.835V247.321L132.84 261.946Z" fill="#1D1D1B"/>
<path d="M503.916 32.2598V41.102L466.178 55.7514V47.2045L494.432 36.6481L466.178 26.0834V17.5693L503.916 32.2598Z" fill="#1D1D1B"/>
<path d="M132.84 32.2598V41.102L95.1016 55.7514V47.2045L123.356 36.6481L95.1016 26.0834V17.5693L132.84 32.2598Z" fill="#1D1D1B"/>
<path d="M503.916 108.985V117.827L466.178 132.485V123.971L494.432 113.406L466.178 102.841V94.3271L503.916 108.985Z" fill="#1D1D1B"/>
<path d="M132.84 108.985V117.827L95.1016 132.485V123.971L123.356 113.406L95.1016 102.841V94.3271L132.84 108.985Z" fill="#1D1D1B"/>
<path d="M503.916 185.709V194.552L466.178 209.209V200.695L494.432 190.131L466.178 179.574V171.06L503.916 185.709Z" fill="#1D1D1B"/>
<path d="M132.84 185.709V194.552L95.1016 209.209V200.695L123.356 190.131L95.1016 179.574V171.06L132.84 185.709Z" fill="#1D1D1B"/>
<path d="M410.891 261.946V270.788L373.152 285.446V276.965L401.399 266.4L373.152 255.835V247.321L410.891 261.946Z" fill="#1D1D1B"/>
<path d="M39.8155 261.946V270.788L2.07715 285.446V276.965L30.3235 266.4L2.07715 255.835V247.321L39.8155 261.946Z" fill="#1D1D1B"/>
<path d="M410.891 32.2598V41.102L373.152 55.7514V47.2045L401.399 36.6481L373.152 26.0834V17.5693L410.891 32.2598Z" fill="#1D1D1B"/>
<path d="M39.8155 32.2598V41.102L2.07715 55.7514V47.2045L30.3235 36.6481L2.07715 26.0834V17.5693L39.8155 32.2598Z" fill="#1D1D1B"/>
<path d="M410.891 108.985V117.827L373.152 132.485V123.971L401.399 113.406L373.152 102.841V94.3271L410.891 108.985Z" fill="#1D1D1B"/>
<path d="M39.8155 108.985V117.827L2.07715 132.485V123.971L30.3235 113.406L2.07715 102.841V94.3271L39.8155 108.985Z" fill="#1D1D1B"/>
<path d="M410.891 185.709V194.552L373.152 209.209V200.695L401.399 190.131L373.152 179.574V171.06L410.891 185.709Z" fill="#1D1D1B"/>
<path d="M39.8155 185.709V194.552L2.07715 209.209V200.695L30.3235 190.131L2.07715 179.574V171.06L39.8155 185.709Z" fill="#1D1D1B"/>
</svg>
