<svg width="243" height="151" viewBox="0 0 243 151" fill="none" xmlns="http://www.w3.org/2000/svg">
<path d="M21.9607 136.295H33.4141L3.06272 82.4642H-8.39062L21.9607 136.295Z" fill="#E30613"/>
<path d="M21.9607 53.8308H33.4141L3.06272 9.91821e-05H-8.39062L21.9607 53.8308Z" fill="#E30613"/>
<path d="M63.7654 136.295H75.2188L44.8674 82.4642H33.4141L63.7654 136.295Z" fill="#E30613"/>
<path d="M63.7654 53.8308H75.2188L44.8674 9.91821e-05H33.4141L63.7654 53.8308Z" fill="#E30613"/>
<path d="M105.571 136.295H117.024L86.6726 82.4642H75.2192L105.571 136.295Z" fill="#E30613"/>
<path d="M105.571 53.8308H117.024L86.6726 9.91821e-05H75.2192L105.571 53.8308Z" fill="#E30613"/>
<path d="M147.374 136.295H158.828L128.476 82.4642H117.023L147.374 136.295Z" fill="#E30613"/>
<path d="M147.374 53.8308H158.828L128.476 9.91821e-05H117.023L147.374 53.8308Z" fill="#E30613"/>
<path d="M189.179 136.295H200.633L170.281 82.4642H158.828L189.179 136.295Z" fill="#E30613"/>
<path d="M189.179 53.8308H200.633L170.281 9.91821e-05H158.828L189.179 53.8308Z" fill="#1D1D1B"/>
<path d="M230.984 136.295H242.438L212.086 82.4642H200.633L230.984 136.295Z" fill="#E30613"/>
<path d="M230.984 53.8308H242.438L212.086 9.91821e-05H200.633L230.984 53.8308Z" fill="#1D1D1B"/>
</svg>
