<svg width="284" height="344" viewBox="0 0 284 344" fill="none" xmlns="http://www.w3.org/2000/svg">
<path d="M259.917 31.3179L274.095 51.8844L257.286 63.4721C243.198 73.1838 241.87 86.33 253.3 102.911L343.974 234.441C370.352 272.704 363.69 305.52 323.989 332.889L308.62 343.484L294.442 322.917L308.37 313.316C333.023 296.321 336.447 274.909 318.642 249.082L229.617 119.943C222.363 109.421 218.418 100.615 217.783 93.527C217.248 85.8992 219.623 78.3819 224.908 70.9752C216.106 73.2801 208.345 72.9853 201.626 70.0907C195.008 66.6566 188.072 59.6783 180.818 49.1559L91.7929 -79.9827C73.9879 -105.81 52.7588 -110.227 28.1055 -93.2313L14.1781 -83.63L0 -104.197L15.3683 -114.791C55.0696 -142.16 88.1091 -136.713 114.487 -98.4498L205.161 33.0803C216.371 49.3421 229.02 52.6173 243.108 42.9056L259.917 31.3179Z" fill="black"/>
</svg>
