<svg width="264" height="238" viewBox="0 0 264 238" fill="none" xmlns="http://www.w3.org/2000/svg">
<path d="M227.246 237.835H213.602L249.758 173.709H263.402L227.246 237.835Z" fill="#E30613"/>
<path d="M227.246 41.3628H213.602L249.758 -22.7637H263.402L227.246 41.3628Z" fill="#E30613"/>
<path d="M227.246 139.599H213.602L249.758 75.4724H263.402L227.246 139.599Z" fill="#E30613"/>
<path d="M177.445 237.835H163.801L199.958 173.709H213.602L177.445 237.835Z" fill="#E30613"/>
<path d="M177.445 41.3628H163.801L199.958 -22.7637H213.602L177.445 41.3628Z" fill="#E30613"/>
<path d="M177.445 139.599H163.801L199.958 75.4724H213.602L177.445 139.599Z" fill="#E30613"/>
<path d="M127.645 237.835H114.001L150.158 173.709H163.802L127.645 237.835Z" fill="#E30613"/>
<path d="M127.645 41.3628H114.001L150.158 -22.7637H163.802L127.645 41.3628Z" fill="#E30613"/>
<path d="M127.645 139.599H114.001L150.158 75.4724H163.802L127.645 139.599Z" fill="#1D1D1B"/>
<path d="M77.8445 237.835H64.2006L100.357 173.709H114.001L77.8445 237.835Z" fill="#E30613"/>
<path d="M77.8445 41.3628H64.2006L100.357 -22.7637H114.001L77.8445 41.3628Z" fill="#E30613"/>
<path d="M77.8445 139.599H64.2006L100.357 75.4724H114.001L77.8445 139.599Z" fill="#1D1D1B"/>
<path d="M28.0447 237.835H14.4008L50.5572 173.709H64.2012L28.0447 237.835Z" fill="#E30613"/>
<path d="M28.0447 41.3628H14.4008L50.5572 -22.7637H64.2012L28.0447 41.3628Z" fill="#E30613"/>
<path d="M28.0447 139.599H14.4008L50.5572 75.4724H64.2012L28.0447 139.599Z" fill="#E30613"/>
<path d="M-21.7551 237.835H-35.399L0.757432 173.709H14.4014L-21.7551 237.835Z" fill="#E30613"/>
<path d="M-21.7551 41.3628H-35.399L0.757432 -22.7637H14.4014L-21.7551 41.3628Z" fill="#E30613"/>
<path d="M-21.7551 139.599H-35.399L0.757432 75.4724H14.4014L-21.7551 139.599Z" fill="#E30613"/>
</svg>
