<svg width="254" height="222" viewBox="0 0 254 222" fill="none" xmlns="http://www.w3.org/2000/svg">
<path d="M24.6088 46.5955C20.1356 46.1374 16.1323 49.4459 15.6675 53.9849L10.6178 103.298C10.153 107.837 13.4026 111.888 17.8759 112.346C22.3491 112.804 26.3524 109.496 26.8172 104.957L31.8669 55.6438C32.3317 51.1048 29.082 47.0536 24.6088 46.5955Z" fill="black"/>
<path d="M101.072 126.552C96.5985 126.094 92.5952 129.403 92.1304 133.942L87.0806 183.255C86.6158 187.794 89.8655 191.845 94.3387 192.303C98.812 192.761 102.815 189.453 103.28 184.914L108.33 135.601C108.795 131.062 105.545 127.01 101.072 126.552Z" fill="black"/>
<path d="M160.545 167.461C163.379 170.995 168.508 171.52 172 168.634C175.491 165.748 176.024 160.545 173.19 157.011L142.396 118.622C139.562 115.089 134.433 114.563 130.941 117.449C127.45 120.335 126.917 125.539 129.751 129.072L160.545 167.461Z" fill="black"/>
<path d="M-14.2551 30.4538L-52.1903 61.8046C-55.6822 64.6904 -56.2151 69.8941 -53.3805 73.4277C-50.5465 76.9613 -45.4178 77.4865 -41.9259 74.6007L-3.99073 43.2499C-0.498834 40.364 0.0340247 35.1604 -2.80051 31.6268C-5.6345 28.0932 -10.7638 27.5679 -14.2551 30.4538Z" fill="black"/>
<path d="M62.2087 110.411L24.2736 141.762C20.7817 144.647 20.2488 149.851 23.0833 153.385C25.9173 156.918 31.0461 157.444 34.538 154.558L72.4731 123.207C75.965 120.321 76.4979 115.117 73.6634 111.584C70.8294 108.05 65.7001 107.525 62.2087 110.411Z" fill="black"/>
<path d="M69.3143 9.64809C68.8495 14.1871 72.0992 18.2383 76.5724 18.6964L125.171 23.6729C129.644 24.131 133.647 20.8225 134.112 16.2835C134.577 11.7445 131.327 7.69328 126.854 7.23521L78.2557 2.25867C73.7824 1.80061 69.7791 5.1091 69.3143 9.64809Z" fill="black"/>
<path d="M145.779 89.6048C145.314 94.1438 148.564 98.195 153.037 98.6531L201.636 103.63C206.109 104.088 210.112 100.779 210.577 96.2402C211.042 91.7012 207.792 87.65 203.319 87.1919L154.721 82.2154C150.247 81.7573 146.244 85.0658 145.779 89.6048Z" fill="black"/>
<path d="M84.0816 87.5044C86.9156 91.038 92.0443 91.5632 95.5362 88.6773C99.0281 85.7915 99.561 80.5879 96.7264 77.0543L65.9327 38.6655C63.0987 35.1319 57.9694 34.6066 54.4781 37.4925C50.9862 40.3783 50.4533 45.5819 53.2878 49.1156L84.0816 87.5044Z" fill="#E30613"/>
<path d="M148.347 60.5061L186.282 29.1553C189.774 26.2695 190.307 21.0659 187.472 17.5322C184.638 13.9987 179.509 13.4734 176.018 16.3593L138.083 47.7101C134.591 50.5959 134.058 55.7995 136.892 59.3332C139.727 62.8668 144.856 63.392 148.347 60.5061Z" fill="#E30613"/>
</svg>
