<svg width="229" height="452" viewBox="0 0 229 452" fill="none" xmlns="http://www.w3.org/2000/svg">
<path d="M746.556 25.4653V40.3113L683.668 64.9215V50.6815L730.739 32.9434L683.668 15.2053V0.910156L746.556 25.4653Z" fill="#E30613"/>
<path d="M683.668 1404.82V1389.97L746.557 1365.36V1379.6L699.486 1397.34L746.557 1415.08V1429.37L683.668 1404.82Z" fill="#E30613"/>
<path d="M1180.55 1225.05L1170.06 1214.56L1197.12 1152.68L1207.19 1162.75L1186.45 1208.58L1232.28 1187.84L1242.39 1197.95L1180.55 1225.05Z" fill="#E30613"/>
<path d="M249.673 205.232L260.171 215.73L233.104 277.601L223.035 267.532L243.776 221.705L197.95 242.446L187.842 232.338L249.673 205.232Z" fill="#E30613"/>
<path d="M1225.02 249.701L1214.52 260.199L1152.65 233.132L1162.72 223.063L1208.55 243.804L1187.81 197.977L1197.92 187.869L1225.02 249.701Z" fill="#E30613"/>
<path d="M205.202 1180.58L215.7 1170.09L277.571 1197.15L267.501 1207.22L221.675 1186.48L242.416 1232.31L232.308 1242.41L205.202 1180.58Z" fill="#E30613"/>
<path d="M1404.79 746.587H1389.94L1365.33 683.698H1379.57L1397.31 730.769L1415.05 683.698H1429.34L1404.79 746.587Z" fill="#E30613"/>
<path d="M25.435 683.698H40.281L64.8913 746.587H50.6513L32.9132 699.516L15.175 746.587H0.879883L25.435 683.698Z" fill="#E30613"/>
<path d="M923.986 57.1011L920.143 71.4413L853.028 78.9362L856.714 65.1814L906.771 60.2305L865.896 30.914L869.596 17.106L923.986 57.1011Z" fill="#E30613"/>
<path d="M506.238 1373.18L510.08 1358.84L577.195 1351.34L573.51 1365.1L523.452 1370.05L564.328 1399.37L560.628 1413.17L506.238 1373.18Z" fill="#E30613"/>
<path d="M1032.72 1328.14L1025.3 1315.28L1067.45 1262.53L1074.57 1274.86L1042.68 1313.75L1092.31 1305.58L1099.46 1317.96L1032.72 1328.14Z" fill="#E30613"/>
<path d="M397.505 102.139L404.928 114.996L362.77 167.753L355.65 155.421L387.545 116.524L337.912 124.698L330.764 112.318L397.505 102.139Z" fill="#E30613"/>
<path d="M1328.11 397.533L1315.25 404.956L1262.5 362.798L1274.83 355.678L1313.73 387.573L1305.55 337.94L1317.93 330.792L1328.11 397.533Z" fill="#E30613"/>
<path d="M102.112 1032.75L114.969 1025.32L167.726 1067.48L155.394 1074.6L116.497 1042.71L124.671 1092.34L112.291 1099.49L102.112 1032.75Z" fill="#E30613"/>
<path d="M1373.15 924.015L1358.81 920.172L1351.32 853.057L1365.07 856.743L1370.02 906.8L1399.34 865.925L1413.15 869.625L1373.15 924.015Z" fill="#E30613"/>
<path d="M57.0737 506.265L71.4139 510.108L78.9089 577.223L65.1541 573.537L60.2031 523.479L30.8867 564.355L17.0786 560.655L57.0737 506.265Z" fill="#E30613"/>
<path d="M1087.19 133.585L1079.77 146.442L1013 136.311L1020.12 123.979L1069.75 132.153L1037.86 93.2557L1045 80.8757L1087.19 133.585Z" fill="#E30613"/>
<path d="M343.048 1296.7L350.471 1283.84L417.239 1293.97L410.119 1306.3L360.486 1298.13L392.381 1337.03L385.234 1349.41L343.048 1296.7Z" fill="#E30613"/>
<path d="M863.245 1389.46L859.403 1375.12L913.779 1335.07L917.464 1348.82L876.588 1378.14L926.646 1383.09L930.346 1396.9L863.245 1389.46Z" fill="#E30613"/>
<path d="M566.988 40.8257L570.83 55.1659L516.454 95.2143L512.769 81.4595L553.644 52.1431L503.587 47.1921L499.887 33.384L566.988 40.8257Z" fill="#E30613"/>
<path d="M1389.43 567.012L1375.09 570.855L1335.04 516.479L1348.8 512.793L1378.11 553.669L1383.06 503.611L1396.87 499.912L1389.43 567.012Z" fill="#E30613"/>
<path d="M40.7984 863.27L55.1386 859.427L95.187 913.803L81.4322 917.489L52.1158 876.613L47.1648 926.671L33.3568 930.371L40.7984 863.27Z" fill="#E30613"/>
<path d="M1296.67 1087.21L1283.81 1079.79L1293.95 1013.02L1306.28 1020.14L1298.1 1069.77L1337 1037.88L1349.38 1045.03L1296.67 1087.21Z" fill="#E30613"/>
<path d="M133.559 343.071L146.416 350.494L136.285 417.262L123.953 410.142L132.127 360.509L93.2297 392.404L80.8497 385.256L133.559 343.071Z" fill="#E30613"/>
<path d="M837.658 35.8298L835.677 50.543L770.066 66.5392L771.967 52.4266L820.984 41.1298L776.702 17.2678L778.61 3.10052L837.658 35.8298Z" fill="#E30613"/>
<path d="M591.226 1394.45L593.207 1379.74L658.818 1363.74L656.917 1377.85L607.9 1389.15L652.182 1413.01L650.274 1427.18L591.226 1394.45Z" fill="#E30613"/>
<path d="M1107.66 1282.61L1098.66 1270.81L1133.74 1213.1L1142.37 1224.42L1115.7 1267.07L1163.89 1252.63L1172.56 1264L1107.66 1282.61Z" fill="#E30613"/>
<path d="M321.221 147.669L330.224 159.474L295.141 217.178L286.506 205.855L313.178 163.207L264.993 177.646L256.325 166.279L321.221 147.669Z" fill="#E30613"/>
<path d="M1281.91 321.921L1270.11 330.923L1212.4 295.841L1223.73 287.206L1266.37 313.878L1251.93 265.693L1263.3 257.024L1281.91 321.921Z" fill="#E30613"/>
<path d="M146.969 1108.36L158.774 1099.35L216.479 1134.44L205.156 1143.07L162.507 1116.4L176.946 1164.59L165.579 1173.25L146.969 1108.36Z" fill="#E30613"/>
<path d="M1393.75 838.357L1379.04 836.375L1363.04 770.764L1377.15 772.665L1388.45 821.682L1412.31 777.4L1426.48 779.308L1393.75 838.357Z" fill="#E30613"/>
<path d="M35.1318 591.925L49.845 593.906L65.8412 659.517L51.7286 657.616L40.4318 608.599L16.5698 652.881L2.40252 650.973L35.1318 591.925Z" fill="#E30613"/>
<path d="M1009.43 90.8745L1003.7 104.574L936.188 103.043L941.677 89.9036L991.947 91.6783L955.35 57.1684L960.86 43.9777L1009.43 90.8745Z" fill="#E30613"/>
<path d="M419.754 1339.42L425.476 1325.72L492.991 1327.25L487.502 1340.39L437.232 1338.61L473.829 1373.12L468.319 1386.32L419.754 1339.42Z" fill="#E30613"/>
<path d="M947.536 1365.05L941.895 1351.32L990.718 1304.66L996.128 1317.83L959.326 1352.13L1009.61 1350.65L1015.04 1363.87L947.536 1365.05Z" fill="#E30613"/>
<path d="M481.64 65.2389L487.281 78.9717L438.458 125.63L433.048 112.458L469.85 78.166L419.569 79.6419L414.138 66.4187L481.64 65.2389Z" fill="#E30613"/>
<path d="M1364.5 482.199L1350.76 487.84L1304.1 439.017L1317.28 433.607L1351.57 470.409L1350.09 420.128L1363.32 414.697L1364.5 482.199Z" fill="#E30613"/>
<path d="M64.6806 948.093L78.4134 942.452L125.072 991.275L111.9 996.685L77.6077 959.883L79.0836 1010.16L65.8604 1015.59L64.6806 948.093Z" fill="#E30613"/>
<path d="M1338.86 1009.98L1325.16 1004.26L1326.69 936.746L1339.83 942.234L1338.06 992.505L1372.57 955.908L1385.76 961.417L1338.86 1009.98Z" fill="#E30613"/>
<path d="M90.3169 420.311L104.016 426.033L102.486 493.548L89.3461 488.059L91.1207 437.789L56.6108 474.386L43.4201 468.876L90.3169 420.311Z" fill="#E30613"/>
<path d="M1161.51 188.46L1152.44 200.212L1087.62 181.26L1096.32 169.988L1144.42 184.713L1118 141.907L1126.74 130.592L1161.51 188.46Z" fill="#E30613"/>
<path d="M268.789 1241.84L277.862 1230.09L342.68 1249.04L333.978 1260.32L285.88 1245.59L312.298 1288.4L303.562 1299.71L268.789 1241.84Z" fill="#E30613"/>
<path d="M771.953 1403.21L770.059 1388.48L829.294 1356.05L831.111 1370.17L786.688 1393.77L835.637 1405.36L837.461 1419.54L771.953 1403.21Z" fill="#E30613"/>
<path d="M658.352 27.1012L660.246 41.826L601.011 74.2583L599.194 60.1347L643.617 36.5363L594.668 24.9483L592.845 10.77L658.352 27.1012Z" fill="#E30613"/>
<path d="M1403.21 658.352L1388.48 660.247L1356.05 601.012L1370.17 599.195L1393.77 643.618L1405.36 594.669L1419.54 592.845L1403.21 658.352Z" fill="#E30613"/>
<path d="M27.101 771.955L41.8257 770.061L74.2581 829.296L60.1344 831.112L36.536 786.689L24.9481 835.638L10.7698 837.462L27.101 771.955Z" fill="#E30613"/>
<path d="M1241.85 1161.52L1230.1 1152.44L1249.05 1087.63L1260.32 1096.33L1245.59 1144.43L1288.4 1118.01L1299.72 1126.74L1241.85 1161.52Z" fill="#E30613"/>
<path d="M188.464 268.791L200.216 277.864L181.263 342.682L169.992 333.98L184.717 285.882L141.911 312.3L130.596 303.564L188.464 268.791Z" fill="#E30613"/>
</svg>
