<svg width="271" height="248" viewBox="0 0 271 248" fill="none" xmlns="http://www.w3.org/2000/svg">
<path d="M-62.6596 -437.938V-430.685L-93.3829 -418.662V-425.619L-70.3872 -434.285L-93.3829 -442.951V-449.934L-62.6596 -437.938Z" fill="#E30613"/>
<path d="M-93.3825 235.927V228.674L-62.6592 216.651V223.608L-85.6549 232.274L-62.6592 240.94V247.923L-93.3825 235.927Z" fill="#E30613"/>
<path d="M149.365 148.104L144.236 142.975L157.459 112.749L162.378 117.668L152.246 140.056L174.634 129.924L179.572 134.862L149.365 148.104Z" fill="#E30613"/>
<path d="M-305.405 -350.116L-300.277 -344.987L-313.5 -314.761L-318.419 -319.68L-308.286 -342.068L-330.674 -331.935L-335.612 -336.873L-305.405 -350.116Z" fill="#E30613"/>
<path d="M171.088 -328.391L165.96 -323.262L135.733 -336.485L140.653 -341.405L163.041 -331.272L152.908 -353.66L157.846 -358.598L171.088 -328.391Z" fill="#E30613"/>
<path d="M-327.131 126.379L-322.002 121.251L-291.776 134.474L-296.695 139.393L-319.083 129.26L-308.95 151.648L-313.889 156.586L-327.131 126.379Z" fill="#E30613"/>
<path d="M258.911 -85.644H251.659L239.636 -116.367H246.592L255.258 -93.3716L263.924 -116.367H270.908L258.911 -85.644Z" fill="#E30613"/>
<path d="M-414.955 -116.367H-407.702L-395.679 -85.644H-402.636L-411.301 -108.64L-419.967 -85.644H-426.951L-414.955 -116.367Z" fill="#E30613"/>
<path d="M24.021 -422.483L22.1438 -415.477L-10.6444 -411.816L-8.84384 -418.535L15.6111 -420.954L-4.35812 -435.276L-2.55063 -442.022L24.021 -422.483Z" fill="#E30613"/>
<path d="M-180.064 220.469L-178.187 213.464L-145.399 209.802L-147.2 216.522L-171.655 218.94L-151.685 233.263L-153.493 240.008L-180.064 220.469Z" fill="#E30613"/>
<path d="M77.1408 198.466L73.5144 192.185L94.11 166.411L97.5884 172.436L82.0064 191.439L106.254 187.445L109.746 193.494L77.1408 198.466Z" fill="#E30613"/>
<path d="M-233.184 -400.48L-229.558 -394.199L-250.154 -368.425L-253.632 -374.45L-238.05 -393.452L-262.298 -389.459L-265.789 -395.507L-233.184 -400.48Z" fill="#E30613"/>
<path d="M221.452 -256.17L215.17 -252.543L189.396 -273.139L195.421 -276.617L214.424 -261.035L210.431 -285.283L216.479 -288.775L221.452 -256.17Z" fill="#E30613"/>
<path d="M-377.494 54.156L-371.213 50.5296L-345.439 71.1252L-351.464 74.6036L-370.467 59.0216L-366.474 83.2693L-372.522 86.7612L-377.494 54.156Z" fill="#E30613"/>
<path d="M243.456 1.0361L236.45 -0.841095L232.788 -33.6293L239.508 -31.8287L241.927 -7.37375L256.249 -27.343L262.995 -25.5355L243.456 1.0361Z" fill="#E30613"/>
<path d="M-399.497 -203.05L-392.491 -201.173L-388.83 -168.384L-395.549 -170.185L-397.968 -194.64L-412.29 -174.671L-419.036 -176.478L-399.497 -203.05Z" fill="#E30613"/>
<path d="M103.751 -385.117L100.125 -378.836L67.5063 -383.786L70.9847 -389.81L95.2324 -385.817L79.6504 -404.82L83.1423 -410.868L103.751 -385.117Z" fill="#E30613"/>
<path d="M-259.788 183.105L-256.162 176.824L-223.543 181.774L-227.021 187.798L-251.269 183.805L-235.687 202.808L-239.179 208.856L-259.788 183.105Z" fill="#E30613"/>
<path d="M-5.65326 228.422L-7.53043 221.416L19.0342 201.851L20.8347 208.571L0.865448 222.893L25.3205 225.312L27.128 232.057L-5.65326 228.422Z" fill="#E30613"/>
<path d="M-150.386 -430.434L-148.509 -423.428L-175.074 -403.863L-176.874 -410.583L-156.905 -424.905L-181.36 -427.324L-183.167 -434.069L-150.386 -430.434Z" fill="#E30613"/>
<path d="M251.408 -173.372L244.402 -171.495L224.837 -198.059L231.557 -199.86L245.879 -179.891L248.298 -204.346L255.043 -206.153L251.408 -173.372Z" fill="#E30613"/>
<path d="M-407.449 -28.6398L-400.443 -30.5169L-380.878 -3.9523L-387.597 -2.15176L-401.92 -22.121L-404.338 2.33395L-411.084 4.14148L-407.449 -28.6398Z" fill="#E30613"/>
<path d="M206.092 80.7639L199.81 77.1375L204.76 44.5188L210.785 47.9972L206.792 72.2449L225.794 56.6629L231.842 60.1548L206.092 80.7639Z" fill="#E30613"/>
<path d="M-362.131 -282.776L-355.85 -279.15L-360.8 -246.531L-366.825 -250.009L-362.831 -274.257L-381.834 -258.675L-387.882 -262.167L-362.131 -282.776Z" fill="#E30613"/>
<path d="M-18.1535 -432.875L-19.1215 -425.687L-51.1747 -417.872L-50.2461 -424.767L-26.2995 -430.285L-47.9328 -441.943L-47.0007 -448.864L-18.1535 -432.875Z" fill="#E30613"/>
<path d="M-138.544 230.861L-137.576 223.673L-105.523 215.858L-106.451 222.753L-130.398 228.271L-108.765 239.929L-109.697 246.85L-138.544 230.861Z" fill="#E30613"/>
<path d="M113.751 176.223L109.353 170.456L126.492 142.265L130.711 147.797L117.681 168.632L141.221 161.578L145.456 167.132L113.751 176.223Z" fill="#E30613"/>
<path d="M-270.452 -378.237L-266.054 -372.47L-283.193 -344.279L-287.411 -349.811L-274.381 -370.646L-297.921 -363.592L-302.156 -369.145L-270.452 -378.237Z" fill="#E30613"/>
<path d="M198.88 -293.109L193.113 -288.711L164.922 -305.85L170.454 -310.068L191.289 -297.038L184.235 -320.578L189.789 -324.813L198.88 -293.109Z" fill="#E30613"/>
<path d="M-355.581 91.0944L-349.813 86.6963L-321.623 103.835L-327.154 108.054L-347.99 95.0237L-340.936 118.564L-346.489 122.799L-355.581 91.0944Z" fill="#E30613"/>
<path d="M253.518 -40.8108L246.33 -41.7788L238.516 -73.8319L245.41 -72.9034L250.929 -48.9568L262.586 -70.5901L269.508 -69.658L253.518 -40.8108Z" fill="#E30613"/>
<path d="M-410.218 -161.202L-403.03 -160.234L-395.215 -128.181L-402.11 -129.109L-407.629 -153.056L-419.286 -131.423L-426.207 -132.355L-410.218 -161.202Z" fill="#E30613"/>
<path d="M65.7623 -405.983L62.9668 -399.291L29.9833 -400.038L32.6646 -406.458L57.2236 -405.591L39.3446 -422.45L42.0363 -428.894L65.7623 -405.983Z" fill="#E30613"/>
<path d="M-222.314 203.976L-219.519 197.284L-186.535 198.031L-189.216 204.451L-213.775 203.584L-195.896 220.443L-198.588 226.887L-222.314 203.976Z" fill="#E30613"/>
<path d="M35.5267 216.5L32.7711 209.791L56.6226 186.996L59.2657 193.431L41.2868 210.184L65.8506 209.463L68.5039 215.923L35.5267 216.5Z" fill="#E30613"/>
<path d="M-192.081 -418.507L-189.325 -411.799L-213.176 -389.004L-215.82 -395.439L-197.841 -412.192L-222.404 -411.471L-225.058 -417.931L-192.081 -418.507Z" fill="#E30613"/>
<path d="M239.227 -214.807L232.518 -212.051L209.723 -235.903L216.158 -238.546L232.911 -220.567L232.19 -245.131L238.65 -247.784L239.227 -214.807Z" fill="#E30613"/>
<path d="M-395.781 12.7992L-389.072 10.0436L-366.278 33.8951L-372.713 36.5382L-389.466 18.5593L-388.745 43.123L-395.205 45.7764L-395.781 12.7992Z" fill="#E30613"/>
<path d="M226.704 43.0343L220.011 40.2388L220.759 7.25528L227.178 9.93661L226.311 34.4956L243.17 16.6166L249.614 19.3083L226.704 43.0343Z" fill="#E30613"/>
<path d="M-383.256 -245.042L-376.564 -242.246L-377.311 -209.263L-383.731 -211.944L-382.864 -236.503L-399.723 -218.624L-406.167 -221.316L-383.256 -245.042Z" fill="#E30613"/>
<path d="M140.063 -358.309L135.631 -352.568L103.965 -361.827L108.216 -367.333L131.714 -360.14L118.808 -381.052L123.076 -386.58L140.063 -358.309Z" fill="#E30613"/>
<path d="M-296.065 156.307L-291.633 150.566L-259.967 159.825L-264.218 165.332L-287.716 158.138L-274.81 179.05L-279.077 184.578L-296.065 156.307Z" fill="#E30613"/>
<path d="M-50.2519 235.139L-51.1772 227.945L-22.2388 212.101L-21.3513 219.001L-43.0535 230.529L-19.1402 236.19L-18.2492 243.117L-50.2519 235.139Z" fill="#E30613"/>
<path d="M-105.751 -437.14L-104.826 -429.946L-133.764 -414.102L-134.652 -421.002L-112.949 -432.53L-136.863 -438.192L-137.754 -445.118L-105.751 -437.14Z" fill="#E30613"/>
<path d="M258.138 -128.75L250.944 -127.825L235.1 -156.763L242 -157.651L253.529 -135.949L259.19 -159.862L266.116 -160.753L258.138 -128.75Z" fill="#E30613"/>
<path d="M-414.14 -73.2513L-406.946 -74.1765L-391.102 -45.2382L-398.002 -44.3507L-409.531 -66.0529L-415.192 -42.1395L-422.118 -41.2486L-414.14 -73.2513Z" fill="#E30613"/>
<path d="M179.308 117.064L173.567 112.632L182.826 80.9653L188.332 85.2167L181.139 108.715L202.051 95.8083L207.579 100.076L179.308 117.064Z" fill="#E30613"/>
<path d="M-335.308 -319.065L-329.567 -314.633L-338.826 -282.967L-344.333 -287.218L-337.139 -310.716L-358.051 -297.81L-363.579 -302.078L-335.308 -319.065Z" fill="#E30613"/>
</svg>
