<svg width="171" height="178" viewBox="0 0 171 178" fill="none" xmlns="http://www.w3.org/2000/svg">
<path d="M44.8074 109.988V115.989L19.1963 125.936V120.181L38.3712 113.011L19.1963 105.819V100.041L44.8074 109.988Z" fill="#E30613"/>
<path d="M44.8074 6.18128V12.182L19.1963 22.1461V16.3681L38.3712 9.19836L19.1963 2.01195V-3.76611L44.8074 6.18128Z" fill="#1D1D1B"/>
<path d="M44.8074 58.2504V64.2512L19.1963 74.1986V68.4205L38.3712 61.2508L19.1963 54.0867V48.3086L44.8074 58.2504Z" fill="#1D1D1B"/>
<path d="M170.404 109.988V115.989L144.792 125.936V120.181L163.967 113.011L144.792 105.841V100.063L170.404 109.988Z" fill="#1D1D1B"/>
<path d="M170.404 6.18127V12.182L144.792 22.1294V16.3513L163.967 9.18164L144.792 2.01195V-3.76611L170.404 6.18127Z" fill="#1D1D1B"/>
<path d="M170.404 58.2504V64.2512L144.792 74.1986V68.4205L163.967 61.2508L144.792 54.0867V48.3086L170.404 58.2504Z" fill="#1D1D1B"/>
<path d="M107.272 109.988V115.989L81.6611 125.936V120.181L100.83 113.011L81.6611 105.841V100.063L107.272 109.988Z" fill="#1D1D1B"/>
<path d="M107.272 6.18127V12.182L81.6611 22.1294V16.3513L100.83 9.18164L81.6611 2.01195V-3.76611L107.272 6.18127Z" fill="#1D1D1B"/>
<path d="M107.272 58.2504V64.2512L81.6611 74.1986V68.4205L100.83 61.2508L81.6611 54.0867V48.3086L107.272 58.2504Z" fill="#1D1D1B"/>
</svg>
