<svg width="430" height="198" viewBox="0 0 430 198" fill="none" xmlns="http://www.w3.org/2000/svg">
<path d="M438.167 227.694H419.033L469.738 137.765H488.872L438.167 227.694Z" fill="#E30613"/>
<path d="M438.167 89.9296H419.033L469.738 9.41753e-06H488.872L438.167 89.9296Z" fill="#E30613"/>
<path d="M368.328 227.694H349.195L399.9 137.765H419.033L368.328 227.694Z" fill="#E30613"/>
<path d="M368.328 89.9296H349.195L399.9 9.41753e-06H419.033L368.328 89.9296Z" fill="#E30613"/>
<path d="M298.489 227.694H279.355L330.06 137.765H349.194L298.489 227.694Z" fill="#E30613"/>
<path d="M298.489 89.9296H279.355L330.06 9.41753e-06H349.194L298.489 89.9296Z" fill="#E30613"/>
<path d="M228.65 227.694H209.516L260.221 137.765H279.355L228.65 227.694Z" fill="#E30613"/>
<path d="M228.65 89.9296H209.516L260.221 9.41753e-06H279.355L228.65 89.9296Z" fill="#E30613"/>
<path d="M158.813 227.694H139.679L190.384 137.765H209.518L158.813 227.694Z" fill="#E30613"/>
<path d="M158.813 89.9296H139.679L190.384 9.41753e-06H209.518L158.813 89.9296Z" fill="#E30613"/>
<path d="M88.9733 227.694H69.8393L120.544 137.765H139.678L88.9733 227.694Z" fill="#E30613"/>
<path d="M88.9733 89.9296H69.8393L120.544 9.41753e-06H139.678L88.9733 89.9296Z" fill="#1D1D1B"/>
<path d="M19.1339 227.694H-3.89814e-05L50.7049 137.765H69.8389L19.1339 227.694Z" fill="#E30613"/>
<path d="M19.1339 89.9296H-3.89814e-05L50.7049 9.41753e-06H69.8389L19.1339 89.9296Z" fill="#1D1D1B"/>
</svg>
