<svg width="442" height="231" viewBox="0 0 442 231" fill="none" xmlns="http://www.w3.org/2000/svg">
<path d="M46.5743 0L64.1493 0L17.5755 82.6026H0.000488281L46.5743 0Z" fill="#1A1A1A"/>
<path d="M46.5743 126.541L64.1493 126.541L17.5755 209.143H0.000488281L46.5743 126.541Z" fill="#E30613"/>
<path d="M110.723 0L128.298 0L81.7244 82.6026H64.1494L110.723 0Z" fill="#1A1A1A"/>
<path d="M110.723 126.541L128.298 126.541L81.7244 209.143H64.1494L110.723 126.541Z" fill="#E30613"/>
<path d="M174.872 0L192.447 0L145.873 82.6026H128.298L174.872 0Z" fill="#E30613"/>
<path d="M174.872 126.541L192.447 126.541L145.873 209.143H128.298L174.872 126.541Z" fill="#E30613"/>
<path d="M239.021 0L256.596 0L210.022 82.6026H192.447L239.021 0Z" fill="#E30613"/>
<path d="M239.021 126.541L256.596 126.541L210.022 209.143H192.447L239.021 126.541Z" fill="#E30613"/>
<path d="M303.17 0L320.745 0L274.172 82.6026H256.597L303.17 0Z" fill="#E30613"/>
<path d="M303.17 126.541L320.745 126.541L274.172 209.143H256.597L303.17 126.541Z" fill="#E30613"/>
<path d="M367.317 0L384.892 0L338.319 82.6026H320.744L367.317 0Z" fill="#E30613"/>
<path d="M367.317 126.541L384.892 126.541L338.319 209.143H320.744L367.317 126.541Z" fill="#E30613"/>
<path d="M431.467 0L449.042 0L402.468 82.6026H384.893L431.467 0Z" fill="#E30613"/>
<path d="M431.467 126.541L449.042 126.541L402.468 209.143H384.893L431.467 126.541Z" fill="#E30613"/>
</svg>
